<svg width="20" height="20" viewBox="0 0 20 20" fill="none" xmlns="http://www.w3.org/2000/svg">
<g id="x-circle" clip-path="url(#clip0_4304_7900)">
<path id="Icon" fill-rule="evenodd" clip-rule="evenodd" d="M10 0.833313C4.93743 0.833313 0.833374 4.93737 0.833374 9.99998C0.833374 15.0626 4.93743 19.1666 10 19.1666C15.0626 19.1666 19.1667 15.0626 19.1667 9.99998C19.1667 4.93737 15.0626 0.833313 10 0.833313ZM13.0893 8.08923C13.4147 7.7638 13.4147 7.23616 13.0893 6.91072C12.7639 6.58529 12.2362 6.58529 11.9108 6.91072L10 8.82147L8.0893 6.91072C7.76386 6.58529 7.23622 6.58529 6.91078 6.91072C6.58535 7.23616 6.58535 7.7638 6.91078 8.08923L8.82153 9.99998L6.91078 11.9107C6.58535 12.2362 6.58535 12.7638 6.91078 13.0892C7.23622 13.4147 7.76386 13.4147 8.0893 13.0892L10 11.1785L11.9108 13.0892C12.2362 13.4147 12.7639 13.4147 13.0893 13.0892C13.4147 12.7638 13.4147 12.2362 13.0893 11.9107L11.1786 9.99998L13.0893 8.08923Z" fill="#E2442F"/>
</g>
<defs>
<clipPath id="clip0_4304_7900">
<rect width="20" height="20" fill="white"/>
</clipPath>
</defs>
</svg>
